<svg id="visual" viewBox="0 0 900 600" width="900" height="600" xmlns="http://www.w3.org/2000/svg" xmlns:xlink="http://www.w3.org/1999/xlink" version="1.1"><g stroke-width="1" stroke-linejoin="bevel"><path d="M517 321L493 424L605 336Z" fill="#297ea6" stroke="#297ea6"></path><path d="M593 463L639 390L605 336Z" fill="#0c2435" stroke="#0c2435"></path><path d="M493 424L593 463L605 336Z" fill="#112e42" stroke="#112e42"></path><path d="M493 424L487 492L593 463Z" fill="#297ea6" stroke="#297ea6"></path><path d="M372 407L413 488L493 424Z" fill="#081a28" stroke="#081a28"></path><path d="M493 424L413 488L487 492Z" fill="#112e42" stroke="#112e42"></path><path d="M598 197L469 223L517 321Z" fill="#19435d" stroke="#19435d"></path><path d="M517 321L372 407L493 424Z" fill="#297ea6" stroke="#297ea6"></path><path d="M368 264L372 407L517 321Z" fill="#081a28" stroke="#081a28"></path><path d="M675 519L733 396L639 390Z" fill="#081a28" stroke="#081a28"></path><path d="M639 390L732 321L605 336Z" fill="#00101c" stroke="#00101c"></path><path d="M605 336L598 197L517 321Z" fill="#19435d" stroke="#19435d"></path><path d="M598 600L675 519L593 463Z" fill="#1d4e6b" stroke="#1d4e6b"></path><path d="M593 463L675 519L639 390Z" fill="#277297" stroke="#277297"></path><path d="M598 600L593 463L487 492Z" fill="#0c2435" stroke="#0c2435"></path><path d="M733 396L732 321L639 390Z" fill="#112e42" stroke="#112e42"></path><path d="M732 321L598 197L605 336Z" fill="#112e42" stroke="#112e42"></path><path d="M469 223L368 264L517 321Z" fill="#297ea6" stroke="#297ea6"></path><path d="M478 600L598 600L487 492Z" fill="#00101c" stroke="#00101c"></path><path d="M675 519L774 421L733 396Z" fill="#19435d" stroke="#19435d"></path><path d="M733 396L774 421L732 321Z" fill="#112e42" stroke="#112e42"></path><path d="M832 528L774 421L675 519Z" fill="#00101c" stroke="#00101c"></path><path d="M413 488L478 600L487 492Z" fill="#0c2435" stroke="#0c2435"></path><path d="M509 78L429 170L469 223Z" fill="#205a7a" stroke="#205a7a"></path><path d="M469 223L429 170L368 264Z" fill="#0c2435" stroke="#0c2435"></path><path d="M781 221L681 167L732 321Z" fill="#205a7a" stroke="#205a7a"></path><path d="M732 321L681 167L598 197Z" fill="#081a28" stroke="#081a28"></path><path d="M598 197L509 78L469 223Z" fill="#081a28" stroke="#081a28"></path><path d="M598 600L707 600L675 519Z" fill="#205a7a" stroke="#205a7a"></path><path d="M305 214L290 325L368 264Z" fill="#112e42" stroke="#112e42"></path><path d="M368 264L290 325L372 407Z" fill="#205a7a" stroke="#205a7a"></path><path d="M372 407L315 522L413 488Z" fill="#277297" stroke="#277297"></path><path d="M413 488L367 600L478 600Z" fill="#00101c" stroke="#00101c"></path><path d="M681 167L635 123L598 197Z" fill="#112e42" stroke="#112e42"></path><path d="M262 426L315 522L372 407Z" fill="#205a7a" stroke="#205a7a"></path><path d="M825 299L781 221L732 321Z" fill="#297ea6" stroke="#297ea6"></path><path d="M681 167L682 85L635 123Z" fill="#00101c" stroke="#00101c"></path><path d="M315 522L367 600L413 488Z" fill="#0c2435" stroke="#0c2435"></path><path d="M774 421L825 299L732 321Z" fill="#1d4e6b" stroke="#1d4e6b"></path><path d="M900 438L825 299L774 421Z" fill="#1d4e6b" stroke="#1d4e6b"></path><path d="M290 325L262 426L372 407Z" fill="#205a7a" stroke="#205a7a"></path><path d="M429 170L305 214L368 264Z" fill="#081a28" stroke="#081a28"></path><path d="M290 325L171 400L262 426Z" fill="#15384f" stroke="#15384f"></path><path d="M635 123L509 78L598 197Z" fill="#19435d" stroke="#19435d"></path><path d="M429 170L391 85L305 214Z" fill="#1d4e6b" stroke="#1d4e6b"></path><path d="M707 600L832 528L675 519Z" fill="#081a28" stroke="#081a28"></path><path d="M817 80L682 85L681 167Z" fill="#00101c" stroke="#00101c"></path><path d="M614 0L506 0L509 78Z" fill="#19435d" stroke="#19435d"></path><path d="M315 522L304 600L367 600Z" fill="#297ea6" stroke="#297ea6"></path><path d="M191 600L304 600L315 522Z" fill="#081a28" stroke="#081a28"></path><path d="M509 78L391 85L429 170Z" fill="#246688" stroke="#246688"></path><path d="M707 600L813 600L832 528Z" fill="#205a7a" stroke="#205a7a"></path><path d="M900 479L900 438L832 528Z" fill="#0c2435" stroke="#0c2435"></path><path d="M832 528L900 438L774 421Z" fill="#297ea6" stroke="#297ea6"></path><path d="M900 600L900 479L832 528Z" fill="#0c2435" stroke="#0c2435"></path><path d="M169 173L202 282L305 214Z" fill="#081a28" stroke="#081a28"></path><path d="M305 214L202 282L290 325Z" fill="#15384f" stroke="#15384f"></path><path d="M262 426L168 468L315 522Z" fill="#081a28" stroke="#081a28"></path><path d="M825 299L900 274L781 221Z" fill="#112e42" stroke="#112e42"></path><path d="M781 221L817 80L681 167Z" fill="#0c2435" stroke="#0c2435"></path><path d="M900 438L900 274L825 299Z" fill="#246688" stroke="#246688"></path><path d="M391 85L275 134L305 214Z" fill="#277297" stroke="#277297"></path><path d="M202 282L171 400L290 325Z" fill="#112e42" stroke="#112e42"></path><path d="M614 0L509 78L635 123Z" fill="#1d4e6b" stroke="#1d4e6b"></path><path d="M509 78L506 0L391 85Z" fill="#297ea6" stroke="#297ea6"></path><path d="M391 85L274 0L275 134Z" fill="#246688" stroke="#246688"></path><path d="M700 0L614 0L682 85Z" fill="#1d4e6b" stroke="#1d4e6b"></path><path d="M682 85L614 0L635 123Z" fill="#00101c" stroke="#00101c"></path><path d="M171 400L168 468L262 426Z" fill="#0c2435" stroke="#0c2435"></path><path d="M900 172L817 80L781 221Z" fill="#15384f" stroke="#15384f"></path><path d="M900 274L900 172L781 221Z" fill="#205a7a" stroke="#205a7a"></path><path d="M813 600L900 600L832 528Z" fill="#277297" stroke="#277297"></path><path d="M817 80L700 0L682 85Z" fill="#112e42" stroke="#112e42"></path><path d="M168 468L191 600L315 522Z" fill="#205a7a" stroke="#205a7a"></path><path d="M506 0L361 0L391 85Z" fill="#1d4e6b" stroke="#1d4e6b"></path><path d="M113 193L121 321L202 282Z" fill="#112e42" stroke="#112e42"></path><path d="M202 282L121 321L171 400Z" fill="#15384f" stroke="#15384f"></path><path d="M171 400L101 367L168 468Z" fill="#19435d" stroke="#19435d"></path><path d="M168 468L87 527L191 600Z" fill="#0c2435" stroke="#0c2435"></path><path d="M169 173L305 214L275 134Z" fill="#297ea6" stroke="#297ea6"></path><path d="M170 85L169 173L275 134Z" fill="#246688" stroke="#246688"></path><path d="M0 413L101 367L0 296Z" fill="#277297" stroke="#277297"></path><path d="M121 321L101 367L171 400Z" fill="#112e42" stroke="#112e42"></path><path d="M900 172L900 71L817 80Z" fill="#246688" stroke="#246688"></path><path d="M817 80L823 0L700 0Z" fill="#00101c" stroke="#00101c"></path><path d="M900 71L823 0L817 80Z" fill="#0c2435" stroke="#0c2435"></path><path d="M361 0L274 0L391 85Z" fill="#081a28" stroke="#081a28"></path><path d="M95 117L113 193L169 173Z" fill="#1d4e6b" stroke="#1d4e6b"></path><path d="M169 173L113 193L202 282Z" fill="#297ea6" stroke="#297ea6"></path><path d="M223 0L170 85L275 134Z" fill="#112e42" stroke="#112e42"></path><path d="M0 413L87 527L101 367Z" fill="#19435d" stroke="#19435d"></path><path d="M101 367L87 527L168 468Z" fill="#297ea6" stroke="#297ea6"></path><path d="M87 527L96 600L191 600Z" fill="#205a7a" stroke="#205a7a"></path><path d="M274 0L223 0L275 134Z" fill="#19435d" stroke="#19435d"></path><path d="M900 71L900 0L823 0Z" fill="#297ea6" stroke="#297ea6"></path><path d="M170 85L95 117L169 173Z" fill="#00101c" stroke="#00101c"></path><path d="M0 296L101 367L121 321Z" fill="#277297" stroke="#277297"></path><path d="M109 0L95 117L170 85Z" fill="#0c2435" stroke="#0c2435"></path><path d="M0 296L121 321L113 193Z" fill="#277297" stroke="#277297"></path><path d="M87 527L0 600L96 600Z" fill="#19435d" stroke="#19435d"></path><path d="M0 223L0 296L113 193Z" fill="#081a28" stroke="#081a28"></path><path d="M0 413L0 500L87 527Z" fill="#1d4e6b" stroke="#1d4e6b"></path><path d="M0 139L0 223L113 193Z" fill="#297ea6" stroke="#297ea6"></path><path d="M223 0L109 0L170 85Z" fill="#277297" stroke="#277297"></path><path d="M95 117L0 139L113 193Z" fill="#112e42" stroke="#112e42"></path><path d="M0 500L0 600L87 527Z" fill="#081a28" stroke="#081a28"></path><path d="M0 0L0 139L95 117Z" fill="#297ea6" stroke="#297ea6"></path><path d="M109 0L0 0L95 117Z" fill="#277297" stroke="#277297"></path></g></svg>